<svg width="16" height="16" viewBox="0 0 16 16" fill="none" xmlns="http://www.w3.org/2000/svg">
<path d="M0 15.4658H16.0003V15.9992H0V15.4658Z" fill="#546376"/>
<path d="M1.08807 12.0011L1.04272 11.4677C6.61535 10.9848 11.3885 7.2823 13.2416 2.00463L13.8816 0.179565L14.3851 0.355568L13.7451 2.18066C11.8232 7.65728 6.87054 11.5 1.08807 12.0011Z" fill="#546376"/>
<path d="M1.33179 13.0663H3.19847V14.6663H1.33179V13.0663Z" fill="#546376"/>
<path d="M4.52271 12.5226H5.56621V14.2618H4.52271V12.5226Z" fill="#546376"/>
<path d="M6.95728 10.7817H9.04429V14.2601H6.95728V10.7817Z" fill="#546376"/>
<path d="M9.73853 9.04315H11.8255V14.2607H9.73853V9.04315Z" fill="#546376"/>
<path d="M13.2188 5.56586H14.9579V14.2617H13.2188V5.56586Z" fill="#546376"/>
<path d="M15.0307 2.43484C14.9265 2.43533 14.8311 2.3832 14.7847 2.30014L13.8138 0.570681L11.873 1.43614C11.738 1.49631 11.5737 1.44736 11.5062 1.32701C11.4387 1.20669 11.4936 1.06029 11.6286 1.00011L13.8152 0.0257852C13.9502 -0.0343877 14.1145 0.0143387 14.182 0.134656V0.134913L15.2753 2.0836C15.342 2.20417 15.2862 2.35032 15.1509 2.40975C15.1135 2.42605 15.0725 2.43484 15.0307 2.43484Z" fill="#546376"/>
</svg>
