<svg width="25" height="21" viewBox="0 0 25 21" fill="none" xmlns="http://www.w3.org/2000/svg">
<path d="M20.0804 0L8.71069 4.54768V13.2149L20.0804 17.7626V0Z" fill="white"/>
<path d="M7.63481 4.71484H6.71875V13.0354H7.63481V4.71484Z" fill="white"/>
<path d="M5.65064 12.84V4.51941H1.95599C1.43722 4.51941 0.939714 4.72548 0.572895 5.0923C0.206075 5.45912 0 5.95664 0 6.4754V10.8927C0 11.4114 0.206075 11.9089 0.572895 12.2758C0.939714 12.6426 1.43722 12.8487 1.95599 12.8487L5.65064 12.84Z" fill="white"/>
<path d="M24.0011 8.72105C24.0002 7.98929 23.7092 7.28775 23.1918 6.77031C22.6743 6.25288 21.9728 5.9618 21.241 5.96094H21.1562V11.4812H21.241C21.9728 11.4803 22.6743 11.1892 23.1918 10.6718C23.7092 10.1544 24.0002 9.45281 24.0011 8.72105Z" fill="white"/>
<path d="M5.1711 20.9403C5.46206 20.9403 5.74908 20.8731 6.00984 20.744C6.27061 20.615 6.49808 20.4275 6.6746 20.1962C6.85111 19.9649 6.9719 19.6961 7.02758 19.4105C7.08325 19.1249 7.07232 18.8303 6.99561 18.5497L5.77421 14.1172H1.95242H1.84375L3.34335 19.5581C3.45566 19.9562 3.69502 20.3068 4.02498 20.5563C4.35494 20.8059 4.75741 20.9407 5.1711 20.9403Z" fill="white"/>
</svg>
