<svg width="24" height="22" viewBox="0 0 24 22" fill="none" xmlns="http://www.w3.org/2000/svg">
<path d="M16.7593 18.8268C17.0615 19.1173 17.0386 19.6106 16.69 19.8481C14.9449 21.041 12.8623 21.6929 10.7211 21.7164C5.06633 21.7838 0.198633 17.3271 0.0062725 11.8924C-0.180794 6.6006 3.83849 2.18505 9.09576 1.47082C9.51269 1.41399 9.88285 1.74693 9.88285 2.15196V12.216L16.7593 18.8268Z" fill="white"/>
<path d="M22.5893 9.4678C22.224 4.40122 18.0123 0.352526 12.7418 0.0013507C12.3394 -0.0236726 12.0006 0.302479 12.0006 0.690128V10.1803H21.8732C22.2765 10.1803 22.6153 9.8546 22.5893 9.4678ZM23.2859 12.2161H12.8168L19.7877 18.9173C20.0524 19.1718 20.4936 19.1942 20.7667 18.9461C22.5173 17.3651 23.6553 15.258 23.9932 12.9719C24.0536 12.572 23.7073 12.2161 23.2859 12.2161Z" fill="white"/>
</svg>
