<svg width="16" height="24" viewBox="0 0 16 24" fill="none" xmlns="http://www.w3.org/2000/svg">
<path d="M5.21652 13.3297C5.07916 13.3297 4.97303 13.3297 4.86064 13.3297C3.50582 13.3297 2.15724 13.3297 0.802415 13.3297C0.153098 13.3297 -0.1341 12.9489 0.0594465 12.337C1.27067 8.41614 2.49438 4.50151 3.7181 0.580639C3.85545 0.137355 4.049 0 4.51726 0C6.65875 0 8.80649 0 10.948 0C11.5536 0 11.8346 0.387093 11.6597 0.973975C11.0042 3.17166 10.3424 5.37559 9.68057 7.57328C9.64311 7.69815 9.61189 7.82926 9.56819 7.99783C9.73676 7.99783 9.86787 7.99783 9.99899 7.99783C11.6348 7.99783 13.2643 8.00408 14.9001 7.99159C15.231 7.99159 15.4994 8.06651 15.6493 8.37868C15.7991 8.6971 15.6805 8.95308 15.4745 9.20282C11.5536 13.9915 7.63273 18.7865 3.71185 23.5752C3.59947 23.7063 3.4746 23.8437 3.32476 23.9248C3.08127 24.0622 2.83777 23.9997 2.6255 23.8312C2.39449 23.6501 2.3383 23.4004 2.41322 23.1257C2.53809 22.6512 2.68169 22.1891 2.81904 21.7146C3.59323 19.0175 4.37366 16.3203 5.14784 13.6294C5.17282 13.5482 5.1853 13.4608 5.21652 13.3297Z" fill="white"/>
</svg>
